<?xml version="1.0" encoding="UTF-8" standalone="no"?>
<!-- Created with Inkscape (http://www.inkscape.org/) -->

<svg
   width="135.46666mm"
   height="135.46667mm"
   viewBox="0 0 135.46666 135.46667"
   version="1.1"
   id="svg1"
   xml:space="preserve"
   inkscape:version="1.4.3 (0d15f75042, 2025-12-25)"
   sodipodi:docname="logo.svg"
   inkscape:export-filename="logo.png"
   inkscape:export-xdpi="96"
   inkscape:export-ydpi="96"
   xmlns:inkscape="http://www.inkscape.org/namespaces/inkscape"
   xmlns:sodipodi="http://sodipodi.sourceforge.net/DTD/sodipodi-0.dtd"
   xmlns="http://www.w3.org/2000/svg"
   xmlns:svg="http://www.w3.org/2000/svg"><sodipodi:namedview
     id="namedview1"
     pagecolor="#ffffff"
     bordercolor="#000000"
     borderopacity="0.25"
     inkscape:showpageshadow="2"
     inkscape:pageopacity="0.0"
     inkscape:pagecheckerboard="0"
     inkscape:deskcolor="#d1d1d1"
     inkscape:document-units="mm"
     showguides="false"
     inkscape:zoom="1.4142136"
     inkscape:cx="187.02974"
     inkscape:cy="242.53763"
     inkscape:window-width="2368"
     inkscape:window-height="1283"
     inkscape:window-x="15"
     inkscape:window-y="50"
     inkscape:window-maximized="0"
     inkscape:current-layer="layer2" /><defs
     id="defs1" /><g
     inkscape:label="BACK"
     inkscape:groupmode="layer"
     id="layer1"
     transform="translate(-79.639554,-62.706249)"
     style="display:inline"><!-- Grid lines --><rect
       style="fill:#1c301d;fill-opacity:1;stroke:none;stroke-width:2.24014;stroke-linecap:round;stroke-linejoin:round"
       id="rect1"
       width="135.46666"
       height="135.46666"
       x="79.639557"
       y="62.706249"
       ry="0"
       inkscape:label="background" /><!-- X shapes --><!-- O shapes --></g><g
     inkscape:groupmode="layer"
     id="layer2"
     inkscape:label="icon"><path
       id="path1"
       style="fill:none;stroke:#ffffff;stroke-width:5.29167;stroke-linecap:round;stroke-linejoin:round;stroke-dasharray:none;paint-order:stroke fill markers"
       d="m 67.202616,11.422559 -0.629902,0.168465 -38.972299,10.442773 c 0,0 -5.03225,0.877446 -5.03225,5.032251 V 73.025 c 0,0 5.821132,35.32259 44.649989,51.04254 C 109.02991,107.15775 111.86815,76.185772 111.86815,76.185772 V 27.074316 c 0,-4.154805 -5.03225,-5.032251 -5.03225,-5.032251 L 67.863558,11.599292 Z"
       sodipodi:nodetypes="cccscccsccc" /><path
       style="fill:#000000;stroke:#ffffff;stroke-width:5.29167;stroke-linecap:round;stroke-linejoin:round;stroke-dasharray:none;paint-order:stroke fill markers"
       d="M 38.820899,63.469831 H 22.497412"
       id="path3" /><path
       style="fill:#000000;stroke:#ffffff;stroke-width:5.29167;stroke-linecap:round;stroke-linejoin:round;stroke-dasharray:none;paint-order:stroke fill markers"
       d="M 111.68259,63.471547 H 95.359103"
       id="path3-0" /><path
       style="fill:none;stroke:#ffffff;stroke-width:5.29167;stroke-linecap:round;stroke-linejoin:round;stroke-dasharray:none;paint-order:stroke fill markers"
       d="m 60.897362,67.772869 h -4.022407 c 0,0 -6.673316,1.802752 -8.448747,4.877888 -2.010146,0 -24.244998,0 -24.244998,0"
       id="path4"
       sodipodi:nodetypes="cccc" /><path
       style="fill:none;stroke:#ffffff;stroke-width:5.29167;stroke-linecap:round;stroke-linejoin:round;stroke-dasharray:none;paint-order:stroke fill markers"
       d="m 73.455817,67.776724 h 4.02241 c 0,0 6.67331,1.802752 8.448745,4.877888 2.010146,0 24.244998,0 24.244998,0"
       id="path4-6"
       sodipodi:nodetypes="cccc" /><circle
       style="fill:none;stroke:#ffffff;stroke-width:5.29167;stroke-linecap:round;stroke-linejoin:round;stroke-dasharray:none;paint-order:stroke fill markers"
       id="path5"
       cx="67.16169"
       cy="67.997917"
       r="6.2507811" /><path
       style="fill:none;stroke:#ffffff;stroke-width:5.29167;stroke-linecap:round;stroke-linejoin:round;stroke-dasharray:none;paint-order:stroke fill markers"
       d="M 67.164832,61.31831 V 45.509319 h 6.828735 c 0,0 3.858704,-0.467723 3.858704,-3.858705"
       id="path6" /><path
       style="fill:none;stroke:#ffffff;stroke-width:5.29167;stroke-linecap:round;stroke-linejoin:round;stroke-dasharray:none;paint-order:stroke fill markers"
       d="M 67.155684,61.318076 V 45.509085 h -6.828735 c 0,0 -3.858704,-0.467723 -3.858704,-3.858705"
       id="path6-7" /><path
       style="fill:none;stroke:#ffffff;stroke-width:5.29167;stroke-linecap:round;stroke-linejoin:round;stroke-dasharray:none;paint-order:stroke fill markers"
       d="M 67.13802,121.11302 V 75.141666"
       id="path7" /><path
       style="fill:none;stroke:#ffffff;stroke-width:5.29167;stroke-linecap:round;stroke-linejoin:round;stroke-dasharray:none;paint-order:stroke fill markers"
       d="m 72.450086,38.774127 v -4.303041 c 0,0 0.03916,-1.753055 3.036382,-1.753055 h 18.759448 c 0,0 2.99476,0.06797 2.99476,1.729025 v 15.599161 c 0,0 -0.06657,1.599335 -2.770129,1.599335 H 75.817681 c 0,0 -2.60433,-0.121198 -3.238481,-0.560118"
       id="path8"
       sodipodi:nodetypes="ccscscscc" /><path
       style="fill:none;stroke:#ffffff;stroke-width:5.29167;stroke-linecap:round;stroke-linejoin:round;stroke-dasharray:none;paint-order:stroke fill markers"
       d="m 97.30052,42.267187 h 14.15521"
       id="path9" /><path
       style="fill:none;stroke:#ffffff;stroke-width:5.29167;stroke-linecap:round;stroke-linejoin:round;stroke-dasharray:none;paint-order:stroke fill markers"
       d="m 61.842492,38.76521 v -4.303041 c 0,0 -0.0392,-1.753055 -3.03638,-1.753055 H 40.04666 c 0,0 -2.99476,0.06797 -2.99476,1.729025 V 50.0373 c 0,0 0.0666,1.599335 2.77013,1.599335 h 18.652872 c 0,0 2.60433,-0.121198 3.23848,-0.560118"
       id="path8-3"
       sodipodi:nodetypes="ccscscscc" /><path
       style="fill:none;stroke:#ffffff;stroke-width:5.29167;stroke-linecap:round;stroke-linejoin:round;stroke-dasharray:none;paint-order:stroke fill markers"
       d="M 36.99206,42.25827 H 22.83685"
       id="path9-7" /><path
       style="fill:none;stroke:#ffffff;stroke-width:5.29167;stroke-linecap:round;stroke-linejoin:round;paint-order:stroke fill markers"
       d="M 40.036975,105.34363 66.790654,88.305851 96.30095,105.34363"
       id="path2"
       sodipodi:nodetypes="ccc" /></g></svg>
